<?xml version="1.0" standalone="no"?>
<!DOCTYPE svg PUBLIC "-//W3C//DTD SVG 20010904//EN"
 "http://www.w3.org/TR/2001/REC-SVG-20010904/DTD/svg10.dtd">
<svg version="1.0" xmlns="http://www.w3.org/2000/svg"
 width="1485.000000pt" height="747.000000pt" viewBox="0 0 1485.000000 747.000000"
 preserveAspectRatio="xMidYMid meet">

<g transform="translate(0.000000,747.000000) scale(0.100000,-0.100000)"
fill="#000000" stroke="none">
<path d="M7417 7083 c-30 -71 -602 -1396 -1271 -2946 -669 -1549 -1216 -2822
-1216 -2827 0 -7 112 -9 326 -8 l327 3 1273 2950 c701 1623 1274 2951 1274
2953 0 1 -148 2 -329 2 l-329 0 -55 -127z"/>
<path d="M5295 6699 c-463 -67 -776 -344 -846 -749 -16 -94 -24 -1801 -9
-1973 21 -247 66 -433 130 -545 72 -124 231 -257 385 -321 145 -61 406 -113
431 -87 8 8 591 1349 641 1474 4 9 -33 12 -166 12 l-171 0 0 -262 c-1 -493
-17 -590 -106 -624 -72 -28 -152 -7 -188 49 -34 51 -37 148 -34 1232 3 823 6
1079 16 1107 7 20 26 48 42 62 56 47 173 44 219 -6 37 -39 43 -100 48 -546 l5
-432 297 2 296 3 158 365 158 365 -16 110 c-19 131 -63 267 -111 347 -100 164
-318 315 -545 378 -169 46 -461 64 -634 39z"/>
<path d="M0 6638 c1 -2 121 -802 269 -1778 l267 -1775 702 -3 702 -2 5 22 c7
33 465 3500 465 3521 0 16 -30 17 -488 17 l-488 0 -53 -547 c-57 -594 -109
-1200 -137 -1602 -10 -139 -21 -245 -25 -235 -4 11 -15 118 -24 239 -36 476
-182 1947 -210 2113 l-6 32 -489 0 c-270 0 -490 -1 -490 -2z"/>
<path d="M2570 4860 l0 -1780 805 0 805 0 0 355 0 355 -340 0 -340 0 0 395 0
395 290 0 290 0 0 340 0 340 -290 0 -290 0 0 335 0 335 310 0 310 0 0 355 0
355 -775 0 -775 0 0 -1780z"/>
<path d="M11125 5399 c-184 -25 -379 -100 -503 -194 -199 -150 -272 -358 -272
-775 0 -277 29 -416 122 -591 80 -151 169 -227 613 -526 389 -263 435 -305
472 -443 22 -84 25 -375 5 -433 -38 -106 -132 -151 -231 -111 -81 32 -91 80
-91 449 l0 285 -437 0 -436 0 6 -237 c13 -458 60 -646 198 -797 189 -206 490
-316 865 -316 363 0 670 110 852 304 94 101 138 216 162 426 17 140 8 514 -15
640 -23 127 -70 268 -114 341 -43 71 -151 184 -265 275 -85 69 -361 255 -541
364 -162 99 -218 148 -257 227 -31 64 -33 73 -36 204 -5 167 9 231 63 277 67
60 169 51 210 -18 18 -32 20 -55 23 -262 l4 -228 436 0 435 0 -7 202 c-7 218
-25 371 -57 473 -66 214 -298 376 -638 447 -111 23 -449 33 -566 17z"/>
<path d="M7581 5298 c-10 -24 -233 -539 -495 -1146 l-476 -1103 0 -635 0 -634
698 0 c721 0 851 5 992 41 221 56 363 187 414 383 38 146 41 231 41 1306 0
1126 -3 1194 -51 1340 -56 166 -165 291 -317 365 -147 71 -275 96 -572 115
-231 14 -213 17 -234 -32z m129 -588 c40 -11 82 -50 102 -95 10 -24 14 -217
16 -935 4 -1041 -2 -1159 -57 -1224 -25 -29 -89 -54 -163 -61 l-68 -7 0 1172
0 1173 68 -7 c37 -4 83 -11 102 -16z"/>
<path d="M9110 3560 l0 -1780 465 0 465 0 0 1780 0 1780 -465 0 -465 0 0
-1780z"/>
<path d="M12750 3560 l0 -1780 465 0 465 0 0 715 0 715 198 0 c370 0 563 54
708 195 134 132 164 279 164 804 0 462 -20 632 -90 775 -100 203 -307 310
-664 345 -64 7 -348 11 -678 11 l-568 0 0 -1780z m1113 1143 c50 -20 83 -62
96 -123 14 -67 14 -518 0 -596 -21 -114 -68 -152 -200 -161 l-79 -6 0 458 0
457 73 -7 c39 -4 89 -14 110 -22z"/>
</g>
</svg>
